<?xml version="1.0" encoding="UTF-8"?>
<!DOCTYPE svg PUBLIC "-//W3C//DTD SVG 1.1//EN" "http://www.w3.org/Graphics/SVG/1.1/DTD/svg11.dtd">
<!-- Creator: CorelDRAW 2020 (64-Bit) -->
<svg xmlns="http://www.w3.org/2000/svg" xml:space="preserve" width="65px" height="65px" version="1.1" style="shape-rendering:geometricPrecision; text-rendering:geometricPrecision; image-rendering:optimizeQuality; fill-rule:evenodd; clip-rule:evenodd"
viewBox="0 0 65 65"
 xmlns:xlink="http://www.w3.org/1999/xlink"
 xmlns:xodm="http://www.corel.com/coreldraw/odm/2003">
 <defs>
  <style type="text/css">
   <![CDATA[
    .str0 {stroke:#373435;stroke-width:1.45;stroke-miterlimit:22.9256}
    .fil4 {fill:#060606}
    .fil7 {fill:#090909}
    .fil1 {fill:#0D0D0D}
    .fil3 {fill:#131313}
    .fil6 {fill:#373435}
    .fil2 {fill:#E9E9E9}
    .fil0 {fill:#FEFEFE}
    .fil5 {fill:white}
   ]]>
  </style>
 </defs>
 <g id="Capa_x0020_1">
  <metadata id="CorelCorpID_0Corel-Layer"/>
  <g id="_1475819537680">
   <g id="_2408781165088">
    <path class="fil0 str0" d="M-162.24 24.79c0.32,0.2 0.39,0.47 0.61,0.8 0.21,0.3 0.32,0.46 0.49,0.77 0.31,0.57 0.64,1.06 0.9,1.72 0.55,0.33 1.82,3.86 2.05,4.94 0.56,2.62 -0.49,5.12 -1.71,6.96 -1.62,2.45 -5.03,4.21 -8.31,4.04 -0.09,3.8 0,8.19 0,12.1 0,3.02 0.18,1.97 1.19,2.91 1.02,-0.21 35.24,-0.07 36.19,-0.07 3.7,0 3,-0.19 2.86,-5.94 -0.08,-2.85 -0.2,-5.82 -0.32,-8.69 -0.19,-4.32 -0.21,-8.78 -0.43,-13.15 -0.05,-1.06 -0.23,-3.62 -0.12,-4.5 -0.17,-0.2 -0.54,-1.08 -0.82,-1.48 -0.59,-0.82 -7.57,-6.62 -8.13,-7.49 -0.69,-0.22 -7.29,-6.54 -9.04,-8.06 -0.29,-0.26 -1.04,-0.77 -1.28,-1.05 -3.27,-0.97 -4.61,0.03 -5.63,-0.74 -0.73,-0.55 -0.56,-1.55 -0.56,-2.67 0,-2.19 0.11,-1.28 -0.5,-2.59 -2.1,-0.49 -5.01,-0.21 -7.38,-0.21 -1.34,-0.01 -2.36,-0.02 -2.51,1.33 -0.11,1.03 0.15,2.67 -0.1,3.55 0.62,0.04 3.95,-0.13 4.32,0.12 0.35,0.24 0.24,0.63 -0.14,0.75 -0.38,0.12 -4.91,0.03 -5.69,0.03 -2.43,-0.02 -1.93,1.57 -1.93,3.78 0,1.89 -0.03,3.81 0,5.7 1.08,-0.37 1.43,0.66 1.92,1.29l2.82 3.82c0.36,0.54 1.13,1.43 1.25,2.03l0 0zm12.82 -2.23c-0.48,-4.02 -4.21,-10.65 -0.54,-10.28 5.78,4.77 10.16,9.12 15.45,14.21 2.18,3.24 -5.88,0.76 -12.45,-0.88 -1.54,-0.59 -2.11,-1.82 -2.46,-3.05z"/>
    <path class="fil0 str0" d="M-170.44 23.28c-0.27,0.66 -0.72,1.07 -1.11,1.73 -0.26,0.44 -0.73,1.15 -1.03,1.59 -0.56,0.87 -0.99,1.64 -1.52,2.61 -0.49,0.88 -0.81,1.72 -1.26,2.65 -0.54,2.27 -0.64,2.52 -0.11,4.92 0.33,0.66 0.41,1.1 0.86,1.79 0.36,0.54 0.82,1.12 1.23,1.51 0.98,0.96 1.87,1.43 3.41,1.96l1.92 0.39 0.64 0 0.64 -0.16c0.31,-0.04 0.4,-0.03 0.71,-0.1 4.56,-0.97 7.93,-5.91 5.53,-11.18 -0.39,-0.87 -0.69,-1.42 -1.12,-2.19 -0.26,-0.47 -1.15,-1.75 -1.17,-2.23 -0.41,-0.25 -0.96,-1.27 -1.21,-1.68 -0.4,-0.65 -0.84,-1.06 -1.13,-1.73 -0.28,-0.17 -0.97,-1.25 -1.25,-1.61 -0.38,-0.48 -0.98,-1.18 -1.27,-1.71 -0.46,0.3 -1.03,1.25 -1.45,1.76 -0.26,0.32 -0.47,0.61 -0.69,0.9 -0.21,0.3 -0.36,0.65 -0.62,0.78z"/>
   </g>
  </g>
  <g id="_1475819530624">
   <g id="_2408784956736">
    <path class="fil1" d="M-50.2 -78.8c-21.32,3.44 -20.49,14.11 -23.58,23.12 -1.9,5.52 -1.13,7.93 0.58,13.28 8.73,27.28 49.68,25.61 60.53,8.63 1.65,-2.58 2.97,-7.89 3.93,-11.25 2.08,-7.21 -8.45,-39.11 -41.46,-33.78l0 0z"/>
    <path class="fil0" d="M-71.25 -55.84c3.26,2.7 2.76,2.86 6.99,4.95 -0.69,-6.36 -0.84,-12.98 2.54,-17.44 6.47,2.4 14.38,9.58 19.31,14.7 2.86,2.98 2.28,11.22 21.88,2.62 1.86,-4.99 -2,-21.62 -10.15,-24.8 -14.47,-5.62 -41.08,-0.85 -40.57,19.97l0 0z"/>
    <path class="fil0" d="M-12.06 -40.06c-10.1,5.13 -18.6,7.24 -31.91,6.62 -13.67,-0.64 -18.8,-4.2 -27.57,-9.69 4.34,12.69 11.79,18.21 27.57,19.49 14.75,1.2 29.4,-3.67 31.91,-16.42z"/>
    <path class="fil0" d="M-10.23 -50.8c-3.55,2.31 -2.97,4.79 -13.21,8.13 -26.23,8.55 -40.96,-7.81 -49.46,-11.45 -3,17.65 32.6,21.09 41.53,18.35 3.31,-1.01 4.08,-3.4 9.1,-3.81 4.72,-0.38 6.51,0.46 9.68,-2.61 1.94,-1.89 3.69,-5.06 2.36,-8.61l0 0z"/>
    <path class="fil0" d="M-36.37 -41.94c-2.28,-6.66 -17.78,-22.24 -25.15,-24.23 -1.69,7.88 -4.4,15.7 3.89,19.41 6.49,2.91 13.37,4.66 21.26,4.82z"/>
    <path class="fil0" d="M-18.29 -46.77c10.03,-4.48 6.52,-10.26 -0.1,-19.71 -2,-2.85 -1.27,-2.37 -4.24,-3.78 3.09,10.31 4.35,10.84 4.34,23.49l0 0z"/>
    <path class="fil1" d="M-37.82 -54.39c2.88,4.07 2.33,5.17 9.64,3.21 4.47,-1.19 3.9,-0.53 4.54,-4.66 -1.04,-0.5 -0.67,-0.9 -3.04,-0.67 -0.09,0.01 -3.41,0.97 -3.7,1.04 -2.79,0.71 -4.65,0.89 -7.44,1.08z"/>
    <path class="fil0" d="M-35.53 -44.51c1.4,2.13 -0.33,3.36 9.33,0.84 4.13,-1.07 5.73,-0.66 6.23,-5.23 -2.61,0.29 -13.28,2.63 -15.56,4.39l0 0z"/>
    <path class="fil2" d="M-34.91 -51.76l9.4 -1.97c-0.96,-0.88 1.25,-1.56 -4.33,-0.28 -0.13,0.03 -2.26,0.49 -2.31,0.51 -4.08,1.52 -1.03,0.2 -2.76,1.74l0 0z"/>
   </g>
  </g>
  <g id="_1475819527792">
   <g id="_2408587632688">
    <path class="fil3" d="M46.44 56.54c3.81,-3.37 3.05,-2.63 3.7,-6.25 0.92,-5.17 1.67,-3.39 2.69,-6.7 -1.74,-4.85 -3.51,-4.45 -7.55,-3.72 -3.99,0.71 -7.31,-2.13 -9.78,-3.71 -0.28,-10.35 4.53,-6.54 9.87,-9.72 2.06,-1.23 1.17,-0.13 1.69,-1.65 1.97,-5.83 -0.06,-2.55 -0.62,-3.5 -0.76,1.43 -0.46,3.25 -3.89,4.74 -2.38,1.03 -8.91,0.99 -8.56,8.83 0.12,2.65 1.47,3.22 3.76,4.6 7.73,4.66 9.4,-1.35 13.28,3.33 -0.39,3.02 -1.24,2.3 -2.08,5.8 -1.2,5.01 0.14,2.85 -2.82,5.86 -11.98,-6.37 -23,-13.34 -39.85,-15.37 -1.48,-11.47 -5.83,-20.18 10.7,-27.45 10.94,-4.81 17.33,0.74 24.17,2.78 2.7,0.81 5.75,1.5 7.69,2.75 -9.64,-0.54 -2.2,-2.98 -21.59,0.68l-1.65 4.88c5.58,5.25 4.75,2.77 11.47,0.27 4.78,-1.79 9.85,-2.58 15.25,-2.49 -1.47,0.41 -3.19,0.54 -4.97,2.01l14.34 -1.62c-1.27,-2.94 1.26,-0.97 -2.83,-2.66l-11.71 -3.44c-5.32,-1.64 -10.23,-4.01 -14.69,-5.37 -10.58,-3.23 -35.21,1.85 -27.92,28.02 1.34,4.82 2.5,2.4 14.23,5.84 10.48,3.07 20.09,8.04 27.67,13.26l0 0z"/>
    <path class="fil0" d="M28.56 19.24l-0.8 2.46c0.08,-0.12 0.19,-0.42 0.29,-0.56 3.1,-4.57 4.04,-1.6 5.59,1.73 4.99,-2.27 8.99,-2.96 14.84,-3.88 -2.44,-0.04 -5.35,-1.96 -9.1,-1.66 -3.75,0.3 -7.24,1.42 -10.82,1.91z"/>
   </g>
  </g>
  <g id="_1475819525872">
   <g id="_2408759549824">
    <path class="fil4" d="M-126.58 -71.49c-16.18,1.67 -27.87,15.98 -26.57,31.53 1.31,15.54 14.78,27.42 32.03,25.95 15.8,-1.35 28.07,-14.06 26.23,-31.66 -1.59,-15.21 -14.67,-27.58 -31.69,-25.82l0 0z"/>
    <path class="fil5" d="M-126.49 -70.58c-8.15,0.82 -13.39,4.09 -18.61,9.49 -0.89,0.92 -2.09,2.7 -2.88,3.97 -12.05,19.41 2.64,44.48 26.86,42.22 15.32,-1.42 27.08,-13.6 25.29,-30.74 -1.55,-14.73 -14.13,-26.62 -30.66,-24.94z"/>
    <path class="fil4" d="M-126.65 -64.24c-12.66,1.56 -20.93,12.73 -19.74,24.09 1.25,11.78 11.49,20.82 24.76,19.12 11.89,-1.52 21.34,-10.63 19.44,-24.26 -1.55,-11.19 -11.41,-20.55 -24.46,-18.95l0 0z"/>
    <path class="fil5" d="M-127.85 -63.12c-11.67,1.98 -19.46,13.32 -17.36,24.42 5.06,26.66 47.04,19.85 41.96,-7.45 -1.97,-10.58 -11.77,-19.16 -24.6,-16.97l0 0z"/>
    <path class="fil5" d="M-130.27 -46.93c0.14,0.76 0.12,1.6 -0.28,2.57l-6.39 -0.15 0.04 -2.73 -2.49 -0.49 -0.14 3.81 -0.11 0.1c4.35,0.83 6.76,1.76 8.59,4.36 1.92,2.7 -1.33,6.33 -2.18,9.02 1.22,0.23 3.61,0.18 4.06,0.27l0.18 -0.21 1.03 -1.3c2.94,-3.45 1.7,-1.54 4.01,-3.18 0.03,-1.25 -1.04,-0.97 -1.99,-3.75 -1.37,-4.06 0.95,-8.37 4.45,-9.72 0.65,-0.25 1.33,-0.25 1.79,-0.72 -1.75,-0.59 -2.49,-0.72 -2.91,-2.67l-0.07 0.06 -4.98 0.28c-0.71,1.75 -1.71,3.31 -2.61,4.45l0 0z"/>
    <path class="fil5" d="M-122.06 -52.67c3.19,-0.7 10,0.26 13.2,-0.42 1.31,-0.51 -1.31,-3.2 -1.63,-3.52 -2.65,-2.72 -9.88,-6.42 -11.78,-5.4 -1.85,0.98 -0.06,8.4 0.21,9.34z"/>
    <path class="fil5" d="M-134.2 -30.55c1.02,-1.53 3.88,-6.73 2.66,-8.44 -1.73,-2.41 -4.35,-3.15 -7.95,-3.92 0.09,2.2 0.03,4.43 0.03,6.64 0,2.12 -0.54,4.59 0.82,5.53 1.06,0.55 3.06,0.31 4.44,0.19l0 0z"/>
    <path class="fil5" d="M-128.8 -28.85c-0.91,0.6 -2.05,2.67 -1.5,4.28 2.8,2.68 14.16,1.41 16.13,-1.43 0.01,-1.11 0.06,-1.01 -0.52,-1.88 -0.03,-0.04 -0.44,-0.56 -0.51,-0.64 -0.06,-0.05 -0.22,-0.21 -0.27,-0.25 -0.48,-0.38 -0.02,-0.1 -0.47,-0.25 -0.82,0.15 -1.85,0.09 -2.57,0.05 -0.5,-0.04 -1.88,0.13 -3.19,0.12 -2.37,0 -4.73,0 -7.1,0z"/>
    <path class="fil5" d="M-111.63 -44.88c2.98,5.06 -1.24,8.64 -1.53,10.08 0.43,0.73 1.28,1.77 1.9,2.35 0.84,0.81 1.08,1.36 2.76,1.3l0.34 -0.28c0.34,-1.66 0.3,-13.38 0.01,-15.21 -1.23,0.35 -2.8,0.98 -3.48,1.76z"/>
    <path class="fil5" d="M-128.3 -29.96l-0.5 1.11c2.37,0 4.73,0 7.1,0 1.31,0.01 2.69,-0.16 3.19,-0.12 0.72,0.04 1.75,0.1 2.57,-0.05l-1.29 -1.73c-1.74,-1.97 -3,-3.46 -5.59,-3.9l-0.91 0.64c-4.82,2.44 -2.49,2.44 -4.57,4.05l0 0z"/>
    <path class="fil5" d="M-116.19 -37.67c-0.65,-3.36 -1.01,-4.25 0.93,-6.25 -0.74,-1.19 -1.72,-1.86 -3.01,-1.41l-0.76 0.36c-3.3,1.38 -2.78,1.91 -3.21,4.33l-0.1 0.35c-0.6,2.82 3.65,4.27 5.55,3.05 0.75,-0.48 -0.54,-0.1 0.6,-0.43l0 0z"/>
    <path class="fil5" d="M-141.59 -49.59c1.21,0.78 0.21,0.24 0.64,-0.08 0.02,-0.65 -0.09,-0.68 0.25,-1.14l1.66 -1.82c0.46,-0.3 1,-0.08 1.35,-0.77 0.47,-0.91 -0.1,-1.3 0.58,-2.54 1.2,-0.8 5.68,-0.91 6.86,-0.02 0.92,1.03 0.59,1.19 0.57,2.89 0.75,0.04 0.72,0.06 1.29,0.28 0,-1.83 0.38,-7.31 -1.59,-7.98 -2.03,-0.71 -7.5,3.89 -8.97,5.54 -0.68,0.76 -4.1,4.84 -2.64,5.64l0 0z"/>
    <path class="fil5" d="M-108.15 -46.64c0.29,1.83 0.33,13.55 -0.01,15.21 1.34,-1.87 2.56,-3.98 3.16,-6.95 0.5,-2.42 1.21,-7.12 -0.45,-8.72 -1.24,-0.24 -2.1,0.09 -2.7,0.46z"/>
    <path class="fil5" d="M-139.5 -48.43c0.64,0.36 5.76,0.93 6.96,0.99 1.6,0.07 2.07,-0.02 2.81,-1.15 0.59,-0.9 1.08,-1.8 1.3,-2.92 -2.57,-0.01 -8.97,-0.36 -10.94,0.24l-0.13 2.84 0 0z"/>
    <path class="fil4" d="M-112.25 -45.55l-1.46 0.78 -0.57 0.35 -0.98 0.5c-1.94,2 -1.58,2.89 -0.93,6.25l0.65 1.01c0.5,0.41 0.27,0.09 0.29,0.63 0.33,0.28 0.19,0.14 0.5,0.51 0.36,0.42 0.02,0.14 0.43,0.57l0.73 0.2 -0.27 -0.57 -0.49 -1.23c-0.78,-0.16 -2.77,-4.97 -0.52,-6.56 0.62,-0.43 1.41,-1.05 2.17,-1.25l1.07 -0.52c0.68,-0.78 2.25,-1.41 3.48,-1.76 0.6,-0.37 1.46,-0.7 2.7,-0.46 1.66,1.6 0.95,6.3 0.45,8.72 -0.6,2.97 -1.82,5.08 -3.16,6.95l-0.34 0.28 -0.58 0.91c4.69,-0.57 6.98,-15.23 4.35,-17.29 -2.41,-1.53 -5.14,1.37 -7.52,1.98l0 0z"/>
    <path class="fil4" d="M-123.08 -35.14l0.26 0.49c2.59,0.44 3.85,1.93 5.59,3.9l1.29 1.73c0.45,0.15 -0.01,-0.13 0.47,0.25 0.05,0.04 0.21,0.2 0.27,0.25 0.07,0.08 0.48,0.6 0.51,0.64 0.58,0.87 0.53,0.77 0.52,1.88 -1.97,2.84 -13.33,4.11 -16.13,1.43 -0.55,-1.61 0.59,-3.68 1.5,-4.28l0.5 -1.11c-0.21,-0.61 0.37,-0.5 -0.69,-0.42l-0.18 0.21c-1.01,1.57 -4.12,5.45 -0.7,6.93 3.95,1.7 16.74,0.75 16.49,-3.31 -0.15,-2.38 -4.04,-4.7 -4.74,-6.28l-1.88 -1.86c-0.62,-0.15 0.05,0.04 -0.54,-0.2 -0.07,-0.03 -0.29,-0.14 -0.37,-0.17 -0.71,-0.29 -0.22,-0.19 -1.04,-0.32l-1.13 0.24 0 0z"/>
    <path class="fil4" d="M-123.26 -53.77c0.46,0.52 0.45,1.26 0.58,2.11l0.07 -0.06 0.5 -0.16 0.05 -0.79c-0.27,-0.94 -2.06,-8.36 -0.21,-9.34 1.9,-1.02 9.13,2.68 11.78,5.4 0.32,0.32 2.94,3.01 1.63,3.52 -0.54,1.03 0,0.44 -0.88,1.08 0.35,0.42 -0.63,0.4 0.95,0.37 1.57,-1.51 1.54,-2.6 -0.06,-4.32 -1.2,-1.29 -1.98,-2.17 -3.52,-3.33 -1.71,-1.28 -7.36,-4.08 -10.19,-3.47 -2.53,1.9 -0.5,5.79 -0.7,8.99z"/>
    <path class="fil5" d="M-114.35 -36.55c0.9,0.01 0.84,-0.2 1.34,-1.01 0.39,-0.64 0.68,-1.22 0.86,-2.01 0.41,-1.88 -0.19,-3.19 -0.55,-4.79 -0.76,0.2 -1.55,0.82 -2.17,1.25 -2.25,1.59 -0.25,6.4 0.52,6.56l0 0z"/>
    <g>
     <path class="fil4" d="M-133.7 -29.94c-0.25,-0.53 0.26,-0.66 -0.57,-0.22l-1.54 2.2 -1.45 0.03 -2.28 -2.76c-2.4,-3.19 -4.8,-7.56 -4.14,-11.93 1.77,-1.08 1.63,-0.59 3.73,-0.58l0.31 -0.62 0.11 -0.1c-1.62,-0.13 -3.87,-0.57 -4.78,1.11 -1.44,2.74 1.85,9.46 3.12,11.19 0.92,1.26 2.38,3.42 3.42,4.02 2.21,1.28 3.58,-0.76 4.07,-2.34z"/>
     <path class="fil6" d="M-139.95 -43.2c0,0.46 -0.09,0.3 0.46,0.29 3.6,0.77 6.22,1.51 7.95,3.92 1.22,1.71 -1.64,6.91 -2.66,8.44l-0.07 0.39c0.83,-0.44 0.32,-0.31 0.57,0.22 0.05,-0.05 0.15,-0.22 0.17,-0.16 0.01,0.05 0.12,-0.11 0.14,-0.14 0.03,-0.03 0.11,-0.12 0.16,-0.2 0.85,-2.69 4.1,-6.32 2.18,-9.02 -1.83,-2.6 -4.24,-3.53 -8.59,-4.36l-0.31 0.62 0 0z"/>
    </g>
    <path class="fil5" d="M-136.85 -53.62c1,0.02 5.65,0.18 6.47,-0.33l-0.05 -1.52 -6.4 0.07 -0.02 1.78z"/>
    <path class="fil6" d="M-122.61 -51.72c0.42,1.95 1.16,2.08 2.91,2.67 1.44,0.25 1.87,0.54 3.38,0.2 1.3,-0.23 2.76,-0.73 3.98,-1.15 0.61,-0.21 1.24,-0.44 1.87,-0.69 0.94,-0.38 1.08,-0.38 1.68,-0.95 -1.58,0.03 -0.6,0.05 -0.95,-0.37 -4.35,2.05 -6.71,3.33 -11.8,1.61 -0.09,-0.32 -0.11,-0.54 -0.27,-0.94 -0.23,-0.62 -0.04,-0.18 -0.3,-0.54l-0.5 0.16z"/>
    <path class="fil6" d="M-114.32 -34.95l0.08 0.46 0.28 0.22c1.4,1.39 2.35,3.59 4.88,4.03l0.58 -0.91c-1.68,0.06 -1.92,-0.49 -2.76,-1.29 -0.62,-0.59 -1.47,-1.63 -1.9,-2.36l-0.7 -0.52 0.27 0.57 -0.73 -0.2z"/>
    <path class="fil6" d="M-123.95 -34.86c-2.31,1.64 -1.07,-0.27 -4.01,3.18l-1.03 1.3c1.06,-0.08 0.48,-0.19 0.69,0.42 2.08,-1.61 -0.25,-1.61 4.57,-4.05l0.91 -0.64 -0.26 -0.49 -0.87 0.28 0 0z"/>
    <g>
     <path class="fil4" d="M-138.93 -46.88c0.46,-0.38 0.71,0.09 0.07,-0.6l-2.51 -0.92 -0.41 -1.4 2.09 -2.91c2.46,-3.14 6.07,-6.58 10.48,-7.05 1.48,1.42 0.98,1.42 1.5,3.45l0.68 0.14 0.12 0.08c-0.28,-1.6 -0.44,-3.88 -2.29,-4.33 -3.01,-0.7 -8.67,4.21 -10.02,5.88 -0.98,1.21 -2.7,3.18 -3.01,4.32 -0.67,2.48 1.66,3.28 3.3,3.34l0 0z"/>
     <path class="fil6" d="M-127.71 -56.31c-0.44,0.12 -0.31,-0.01 -0.16,0.51 0.19,3.69 0.14,6.41 -1.76,8.7 -1.33,1.61 -7.09,0.18 -8.83,-0.41l-0.4 0.03c0.64,0.69 0.39,0.22 -0.07,0.6 0.07,0.04 0.25,0.09 0.2,0.13 -0.04,0.03 0.15,0.08 0.17,0.1 0.04,0.02 0.15,0.08 0.24,0.1 2.82,0.14 7.16,2.34 9.28,-0.2 2.04,-2.44 2.32,-5 2.01,-9.42l-0.68 -0.14 0 0z"/>
    </g>
   </g>
  </g>
  <g id="_1475819525344">
   <g id="_2408587593808">
    <path class="fil7" d="M-232.9 0c3.73,0.96 4.25,1.29 8.46,0.67 2.34,-3.6 3.17,-21.19 3.74,-26.44l-0.22 27.32c1.6,4.69 24.91,3.34 29.32,2.22 7.12,-1.81 3.13,-7.21 4.12,-12.16 0.77,-3.83 6.36,-2.13 10.28,-9.95 2.7,-5.38 2.18,-11.78 -0.4,-17.02 -7.13,-14.49 -25.68,-20.73 -41.68,-13.45 -6.41,2.92 -7.15,4.51 -9.33,11.42 -3.4,10.81 -4.2,25.44 -4.29,37.39l0 0z"/>
    <path class="fil0" d="M-231.13 -1.06l6.1 0.6c0.81,-7.98 1.08,-30.46 5.68,-34.14l0.03 36.11c8.82,1.79 21.37,3.11 30.18,-0.24l0.14 -10.35 -8.2 1.12c-1.08,-1.88 -2.17,-2.97 -2.92,-5.37 2.24,-2.12 7.19,-4.49 10.61,-5.73l-1.2 -16.09c5.31,2.66 13.31,11.28 -0.5,18.56 -8.68,4.56 -5.91,1.58 -6.88,5.28 9.7,5.16 22.83,-5.92 20.95,-17.74 -1.63,-10.26 -11.11,-18.03 -21.09,-20.45 -8.94,-2.17 -24.16,-0.79 -28.23,10.91 -3.41,9.78 -5.5,26.58 -4.67,37.53l0 0z"/>
    <path class="fil7" d="M-213.97 -47.33c0.47,4.91 5.17,10.77 9.24,10.38 3.78,-0.35 7.54,-6.61 8.14,-10.89 -3.24,-0.88 -5.32,-1.22 -8.81,-1.2 -1.3,0.01 -3.4,0.09 -4.63,0.28 -2.63,0.4 -2.28,0.42 -3.94,1.43l0 0z"/>
    <path class="fil7" d="M-211.89 -25.79c2.08,6.17 14.79,7.14 14.5,-1.42 -3.32,-3 -12.03,-4.97 -14.5,1.42z"/>
    <path class="fil0" d="M-212.02 -46.5c0.26,4.58 3.59,7.14 7.67,8.11 2.62,-2.02 5.67,-4.22 5.36,-8.52 -4.3,-0.64 -8.92,-1.05 -13.03,0.41l0 0z"/>
    <path class="fil0" d="M-210.28 -25.79c0.95,2.21 2.34,2.89 5.8,2.99 3.8,0.11 4.99,-0.76 5.69,-4.01 -3.32,-1.5 -10.11,-3.01 -11.49,1.02z"/>
    <path class="fil0" d="M-187.83 -20.85c4.93,-3.38 2.56,-7.58 -0.85,-10.69l0.85 10.69z"/>
   </g>
  </g>
 </g>
</svg>
