<?xml version="1.0" encoding="UTF-8"?>
<!DOCTYPE svg PUBLIC "-//W3C//DTD SVG 1.1//EN" "http://www.w3.org/Graphics/SVG/1.1/DTD/svg11.dtd">
<!-- Creator: CorelDRAW 2020 (64-Bit) -->
<svg xmlns="http://www.w3.org/2000/svg" xml:space="preserve" width="65px" height="65px" version="1.1" style="shape-rendering:geometricPrecision; text-rendering:geometricPrecision; image-rendering:optimizeQuality; fill-rule:evenodd; clip-rule:evenodd"
viewBox="0 0 65 65"
 xmlns:xlink="http://www.w3.org/1999/xlink"
 xmlns:xodm="http://www.corel.com/coreldraw/odm/2003">
 <defs>
  <style type="text/css">
   <![CDATA[
    .str0 {stroke:#373435;stroke-width:1.45;stroke-miterlimit:22.9256}
    .fil4 {fill:#060606}
    .fil7 {fill:#090909}
    .fil1 {fill:#0D0D0D}
    .fil3 {fill:#131313}
    .fil6 {fill:#373435}
    .fil2 {fill:#E9E9E9}
    .fil0 {fill:#FEFEFE}
    .fil5 {fill:white}
   ]]>
  </style>
 </defs>
 <g id="Capa_x0020_1">
  <metadata id="CorelCorpID_0Corel-Layer"/>
  <g id="_1475819342720">
   <g id="_2408781165088">
    <path class="fil0 str0" d="M-228.91 46.78c0.32,0.2 0.39,0.47 0.61,0.8 0.21,0.3 0.32,0.46 0.49,0.77 0.31,0.57 0.64,1.06 0.9,1.72 0.55,0.33 1.82,3.86 2.05,4.94 0.56,2.62 -0.49,5.12 -1.71,6.96 -1.62,2.45 -5.03,4.21 -8.31,4.05 -0.09,3.79 0,8.18 0,12.09 0,3.02 0.18,1.97 1.19,2.91 1.02,-0.21 35.24,-0.07 36.19,-0.07 3.7,0 3,-0.19 2.86,-5.94 -0.08,-2.85 -0.2,-5.82 -0.32,-8.69 -0.19,-4.32 -0.21,-8.78 -0.43,-13.15 -0.05,-1.06 -0.23,-3.62 -0.11,-4.5 -0.18,-0.19 -0.55,-1.08 -0.83,-1.48 -0.59,-0.81 -7.57,-6.62 -8.12,-7.49 -0.7,-0.22 -7.3,-6.54 -9.05,-8.06 -0.29,-0.26 -1.04,-0.76 -1.28,-1.05 -3.27,-0.97 -4.61,0.03 -5.63,-0.74 -0.73,-0.55 -0.56,-1.55 -0.56,-2.67 0,-2.19 0.11,-1.28 -0.5,-2.58 -2.1,-0.5 -5.01,-0.22 -7.38,-0.22 -1.34,-0.01 -2.36,-0.02 -2.51,1.33 -0.11,1.03 0.15,2.67 -0.1,3.55 0.62,0.04 3.95,-0.13 4.32,0.12 0.35,0.24 0.24,0.63 -0.14,0.75 -0.38,0.12 -4.91,0.03 -5.69,0.03 -2.43,-0.02 -1.93,1.58 -1.93,3.78 0,1.89 -0.03,3.81 0,5.7 1.08,-0.36 1.43,0.66 1.92,1.29l2.82 3.82c0.36,0.54 1.13,1.43 1.25,2.03l0 0zm12.82 -2.23c-0.48,-4.02 -4.21,-10.65 -0.54,-10.28 5.78,4.77 10.16,9.13 15.45,14.21 2.18,3.24 -5.88,0.76 -12.45,-0.88 -1.54,-0.59 -2.11,-1.81 -2.46,-3.05z"/>
    <path class="fil0 str0" d="M-237.11 45.27c-0.27,0.67 -0.72,1.07 -1.11,1.73 -0.26,0.44 -0.73,1.15 -1.03,1.59 -0.56,0.87 -0.99,1.64 -1.52,2.61 -0.49,0.88 -0.81,1.72 -1.25,2.65 -0.55,2.27 -0.65,2.52 -0.12,4.92 0.33,0.66 0.41,1.11 0.86,1.79 0.36,0.54 0.82,1.12 1.23,1.51 0.98,0.97 1.87,1.43 3.42,1.96l1.91 0.39 0.64 0 0.64 -0.16c0.31,-0.04 0.4,-0.03 0.71,-0.1 4.56,-0.97 7.93,-5.91 5.53,-11.18 -0.39,-0.87 -0.69,-1.42 -1.12,-2.19 -0.26,-0.47 -1.15,-1.75 -1.17,-2.23 -0.41,-0.25 -0.96,-1.27 -1.21,-1.68 -0.4,-0.65 -0.84,-1.06 -1.13,-1.73 -0.28,-0.17 -0.97,-1.25 -1.25,-1.61 -0.38,-0.48 -0.97,-1.18 -1.26,-1.71 -0.47,0.3 -1.04,1.26 -1.46,1.76 -0.26,0.32 -0.47,0.61 -0.69,0.91 -0.21,0.29 -0.36,0.64 -0.62,0.77z"/>
   </g>
  </g>
  <g id="_1475819332784">
   <g id="_2408784956736">
    <path class="fil1" d="M-227 24.25c-21.32,3.44 -20.49,14.11 -23.58,23.12 -1.9,5.53 -1.14,7.93 0.57,13.28 8.74,27.28 49.69,25.61 60.54,8.63 1.64,-2.57 2.96,-7.89 3.93,-11.25 2.07,-7.21 -8.46,-39.11 -41.46,-33.78l0 0z"/>
    <path class="fil0" d="M-248.05 47.21c3.25,2.7 2.76,2.86 6.98,4.95 -0.68,-6.36 -0.83,-12.98 2.54,-17.44 6.48,2.4 14.39,9.58 19.31,14.7 2.87,2.98 2.28,11.22 21.89,2.63 1.86,-5 -2,-21.63 -10.16,-24.8 -14.47,-5.63 -41.07,-0.86 -40.56,19.96l0 0z"/>
    <path class="fil0" d="M-188.87 62.99c-10.1,5.13 -18.59,7.24 -31.91,6.62 -13.67,-0.64 -18.79,-4.2 -27.56,-9.69 4.33,12.7 11.78,18.21 27.56,19.49 14.76,1.2 29.41,-3.67 31.91,-16.42z"/>
    <path class="fil0" d="M-187.03 52.25c-3.56,2.31 -2.97,4.8 -13.21,8.13 -26.24,8.55 -40.96,-7.81 -49.46,-11.45 -3.01,17.65 32.59,21.09 41.52,18.36 3.31,-1.02 4.09,-3.41 9.1,-3.82 4.72,-0.38 6.52,0.46 9.68,-2.61 1.94,-1.89 3.69,-5.06 2.37,-8.61l0 0z"/>
    <path class="fil0" d="M-213.18 61.11c-2.28,-6.65 -17.78,-22.24 -25.14,-24.23 -1.7,7.89 -4.4,15.7 3.89,19.41 6.48,2.91 13.37,4.66 21.25,4.82z"/>
    <path class="fil0" d="M-195.1 56.29c10.03,-4.49 6.53,-10.27 -0.1,-19.72 -2,-2.85 -1.26,-2.37 -4.24,-3.78 3.1,10.31 4.36,10.84 4.34,23.5l0 0z"/>
    <path class="fil1" d="M-214.62 48.66c2.88,4.07 2.32,5.17 9.64,3.22 4.47,-1.2 3.9,-0.54 4.53,-4.67 -1.04,-0.5 -0.66,-0.9 -3.03,-0.67 -0.1,0.01 -3.42,0.97 -3.71,1.04 -2.79,0.71 -4.65,0.89 -7.43,1.08z"/>
    <path class="fil0" d="M-212.33 58.54c1.39,2.13 -0.34,3.36 9.32,0.85 4.14,-1.08 5.73,-0.67 6.23,-5.24 -2.61,0.29 -13.28,2.63 -15.55,4.39l0 0z"/>
    <path class="fil2" d="M-211.72 51.3l9.4 -1.98c-0.96,-0.88 1.25,-1.56 -4.32,-0.28 -0.14,0.03 -2.27,0.49 -2.32,0.51 -4.07,1.52 -1.02,0.2 -2.76,1.75l0 0z"/>
   </g>
  </g>
  <g id="_1475819328752">
   <g id="_2408587632688">
    <path class="fil3" d="M-201.96 81.02c4.51,-3.99 3.61,-3.11 4.37,-7.39 1.1,-6.11 1.98,-4 3.18,-7.91 -2.05,-5.74 -4.15,-5.27 -8.92,-4.41 -4.72,0.85 -8.64,-2.51 -11.56,-4.38 -0.33,-12.24 5.36,-7.73 11.66,-11.49 2.44,-1.45 1.39,-0.16 2,-1.96 2.34,-6.88 -0.06,-3.01 -0.73,-4.13 -0.9,1.69 -0.54,3.85 -4.6,5.6 -2.81,1.22 -10.53,1.17 -10.11,10.44 0.14,3.14 1.73,3.81 4.45,5.44 9.13,5.51 11.1,-1.6 15.69,3.94 -0.46,3.57 -1.47,2.72 -2.46,6.85 -1.42,5.92 0.16,3.37 -3.33,6.93 -14.17,-7.53 -27.19,-15.77 -47.11,-18.17 -1.75,-13.55 -6.89,-23.85 12.64,-32.44 12.94,-5.69 20.5,0.86 28.58,3.28 3.2,0.95 6.79,1.77 9.09,3.25 -11.39,-0.64 -2.6,-3.52 -25.52,0.8l-1.95 5.77c6.59,6.21 5.61,3.28 13.55,0.32 5.65,-2.11 11.65,-3.04 18.03,-2.95 -1.74,0.49 -3.77,0.65 -5.88,2.38l16.96 -1.91c-1.51,-3.48 1.49,-1.14 -3.35,-3.14l-13.84 -4.07c-6.28,-1.94 -12.09,-4.74 -17.36,-6.35 -12.51,-3.81 -41.63,2.19 -33.01,33.12 1.59,5.7 2.97,2.84 16.83,6.9 12.39,3.63 23.74,9.51 32.7,15.68l0 0z"/>
    <path class="fil0" d="M-223.09 36.93l-0.94 2.91c0.08,-0.14 0.22,-0.5 0.33,-0.67 3.67,-5.39 4.78,-1.89 6.61,2.05 5.9,-2.68 10.63,-3.5 17.54,-4.59 -2.88,-0.04 -6.32,-2.32 -10.76,-1.96 -4.42,0.36 -8.55,1.68 -12.78,2.26z"/>
   </g>
  </g>
  <g id="_1475819331200">
   <g id="_2408759549824">
    <path class="fil4" d="M-221.09 23.94c-16.18,1.67 -27.88,15.98 -26.57,31.53 1.3,15.54 14.77,27.42 32.02,25.95 15.8,-1.35 28.07,-14.06 26.23,-31.66 -1.59,-15.21 -14.66,-27.58 -31.68,-25.82l0 0z"/>
    <path class="fil5" d="M-221 24.84c-8.15,0.83 -13.39,4.1 -18.61,9.5 -0.89,0.92 -2.09,2.7 -2.89,3.97 -12.04,19.4 2.65,44.48 26.86,42.22 15.32,-1.42 27.09,-13.6 25.29,-30.74 -1.54,-14.73 -14.13,-26.62 -30.65,-24.95z"/>
    <path class="fil4" d="M-221.17 31.19c-12.65,1.56 -20.93,12.73 -19.73,24.09 1.24,11.78 11.48,20.82 24.76,19.12 11.88,-1.52 21.33,-10.63 19.44,-24.26 -1.56,-11.19 -11.42,-20.55 -24.47,-18.95l0 0z"/>
    <path class="fil5" d="M-222.36 32.31c-11.67,1.98 -19.47,13.32 -17.36,24.42 5.05,26.66 47.04,19.85 41.95,-7.45 -1.97,-10.58 -11.77,-19.16 -24.59,-16.97l0 0z"/>
    <path class="fil5" d="M-224.78 48.5c0.14,0.76 0.12,1.6 -0.28,2.57l-6.39 -0.15 0.03 -2.73 -2.48 -0.49 -0.15 3.81 -0.11 0.1c4.35,0.83 6.76,1.76 8.6,4.36 1.91,2.7 -1.33,6.33 -2.18,9.02 1.22,0.23 3.6,0.18 4.05,0.27l0.19 -0.21 1.03 -1.3c2.93,-3.45 1.69,-1.54 4.01,-3.18 0.02,-1.25 -1.05,-0.97 -1.99,-3.75 -1.37,-4.06 0.95,-8.37 4.45,-9.72 0.64,-0.25 1.33,-0.25 1.78,-0.72 -1.74,-0.59 -2.48,-0.72 -2.91,-2.67l-0.07 0.06 -4.98 0.28c-0.71,1.75 -1.7,3.31 -2.6,4.45l0 0z"/>
    <path class="fil5" d="M-216.58 42.76c3.2,-0.7 10.01,0.26 13.21,-0.42 1.31,-0.51 -1.32,-3.2 -1.63,-3.52 -2.65,-2.72 -9.88,-6.42 -11.78,-5.4 -1.85,0.98 -0.07,8.4 0.2,9.34z"/>
    <path class="fil5" d="M-228.71 64.88c1.02,-1.53 3.88,-6.73 2.66,-8.44 -1.73,-2.41 -4.35,-3.15 -7.96,-3.92 0.1,2.2 0.03,4.43 0.03,6.64 0,2.12 -0.53,4.59 0.83,5.53 1.05,0.55 3.05,0.31 4.44,0.19l0 0z"/>
    <path class="fil5" d="M-223.32 66.58c-0.91,0.6 -2.05,2.67 -1.5,4.28 2.8,2.68 14.16,1.41 16.14,-1.43 0.01,-1.11 0.06,-1.01 -0.53,-1.88 -0.02,-0.04 -0.43,-0.56 -0.5,-0.64 -0.06,-0.05 -0.22,-0.21 -0.28,-0.25 -0.48,-0.38 -0.01,-0.1 -0.47,-0.25 -0.81,0.15 -1.84,0.09 -2.57,0.05 -0.5,-0.04 -1.88,0.13 -3.19,0.12 -2.37,0 -4.73,0 -7.1,0z"/>
    <path class="fil5" d="M-206.15 50.55c2.99,5.06 -1.24,8.64 -1.52,10.08 0.43,0.73 1.28,1.77 1.89,2.35 0.85,0.81 1.09,1.36 2.77,1.3l0.33 -0.28c0.35,-1.66 0.31,-13.38 0.01,-15.21 -1.22,0.35 -2.8,0.98 -3.48,1.76z"/>
    <path class="fil5" d="M-222.81 65.47l-0.51 1.11c2.37,0 4.73,0 7.1,0 1.31,0.01 2.69,-0.16 3.19,-0.12 0.73,0.04 1.76,0.1 2.57,-0.05l-1.29 -1.73c-1.74,-1.97 -2.99,-3.46 -5.59,-3.9l-0.91 0.64c-4.81,2.44 -2.48,2.44 -4.56,4.05l0 0z"/>
    <path class="fil5" d="M-210.7 57.76c-0.66,-3.36 -1.01,-4.25 0.93,-6.25 -0.74,-1.19 -1.73,-1.86 -3.02,-1.41l-0.75 0.35c-3.31,1.39 -2.79,1.92 -3.21,4.34l-0.1 0.35c-0.6,2.82 3.64,4.26 5.54,3.05 0.75,-0.48 -0.53,-0.1 0.61,-0.43l0 0z"/>
    <path class="fil5" d="M-236.11 45.84c1.22,0.77 0.22,0.24 0.65,-0.08 0.02,-0.65 -0.1,-0.68 0.25,-1.15l1.65 -1.81c0.47,-0.3 1.01,-0.08 1.36,-0.77 0.46,-0.91 -0.11,-1.3 0.57,-2.54 1.21,-0.8 5.68,-0.91 6.87,-0.02 0.91,1.03 0.58,1.19 0.57,2.89 0.74,0.04 0.72,0.06 1.28,0.28 0.01,-1.83 0.39,-7.31 -1.58,-7.99 -2.04,-0.7 -7.51,3.9 -8.98,5.55 -0.68,0.76 -4.1,4.84 -2.64,5.64l0 0z"/>
    <path class="fil5" d="M-202.67 48.79c0.3,1.83 0.34,13.55 -0.01,15.21 1.35,-1.87 2.56,-3.98 3.17,-6.95 0.49,-2.42 1.2,-7.12 -0.45,-8.72 -1.24,-0.24 -2.1,0.09 -2.71,0.46z"/>
    <path class="fil5" d="M-234.02 47c0.65,0.36 5.76,0.93 6.97,0.99 1.59,0.07 2.06,-0.02 2.8,-1.15 0.6,-0.9 1.08,-1.8 1.3,-2.92 -2.56,-0.01 -8.97,-0.36 -10.94,0.24l-0.13 2.84 0 0z"/>
    <path class="fil4" d="M-206.76 49.88l-1.47 0.78 -0.56 0.35 -0.98 0.5c-1.94,2 -1.59,2.89 -0.93,6.25l0.64 1.01c0.51,0.41 0.27,0.08 0.29,0.63 0.33,0.28 0.2,0.14 0.51,0.51 0.35,0.42 0.02,0.14 0.42,0.57l0.73 0.2 -0.27 -0.57 -0.49 -1.23c-0.77,-0.16 -2.77,-4.97 -0.51,-6.56 0.62,-0.44 1.41,-1.05 2.16,-1.25l1.07 -0.52c0.68,-0.78 2.26,-1.41 3.48,-1.76 0.61,-0.37 1.47,-0.7 2.71,-0.46 1.65,1.6 0.94,6.3 0.45,8.72 -0.61,2.97 -1.82,5.08 -3.17,6.95l-0.33 0.28 -0.59 0.91c4.7,-0.57 6.98,-15.23 4.36,-17.29 -2.41,-1.53 -5.14,1.37 -7.52,1.98l0 0z"/>
    <path class="fil4" d="M-217.6 60.29l0.26 0.49c2.6,0.44 3.85,1.93 5.59,3.9l1.29 1.73c0.46,0.15 -0.01,-0.13 0.47,0.25 0.06,0.04 0.22,0.2 0.28,0.25 0.07,0.08 0.48,0.6 0.5,0.64 0.59,0.87 0.54,0.77 0.53,1.88 -1.98,2.84 -13.34,4.11 -16.14,1.43 -0.55,-1.61 0.59,-3.68 1.51,-4.28l0.5 -1.11c-0.22,-0.61 0.37,-0.5 -0.69,-0.42l-0.19 0.21c-1.01,1.57 -4.11,5.45 -0.7,6.93 3.96,1.7 16.74,0.75 16.49,-3.31 -0.14,-2.38 -4.04,-4.7 -4.74,-6.28l-1.88 -1.86c-0.62,-0.15 0.05,0.04 -0.54,-0.2 -0.07,-0.03 -0.29,-0.14 -0.36,-0.17 -0.71,-0.29 -0.22,-0.19 -1.04,-0.32l-1.14 0.24 0 0z"/>
    <path class="fil4" d="M-217.78 41.66c0.46,0.52 0.45,1.26 0.58,2.11l0.07 -0.06 0.5 -0.16 0.05 -0.79c-0.27,-0.94 -2.05,-8.36 -0.2,-9.34 1.9,-1.02 9.13,2.68 11.78,5.4 0.31,0.32 2.94,3.01 1.63,3.52 -0.55,1.03 -0.01,0.43 -0.89,1.08 0.36,0.42 -0.62,0.4 0.96,0.37 1.57,-1.51 1.54,-2.6 -0.07,-4.32 -1.19,-1.29 -1.97,-2.17 -3.51,-3.33 -1.72,-1.28 -7.36,-4.08 -10.19,-3.47 -2.54,1.9 -0.51,5.79 -0.71,8.99z"/>
    <path class="fil5" d="M-208.87 58.88c0.91,0.01 0.85,-0.2 1.34,-1.01 0.39,-0.64 0.69,-1.22 0.86,-2.01 0.42,-1.88 -0.18,-3.19 -0.55,-4.79 -0.75,0.2 -1.54,0.81 -2.16,1.25 -2.26,1.59 -0.26,6.4 0.51,6.56l0 0z"/>
    <g>
     <path class="fil4" d="M-228.22 65.49c-0.25,-0.53 0.26,-0.66 -0.56,-0.22l-1.54 2.2 -1.46 0.03 -2.27 -2.76c-2.41,-3.19 -4.81,-7.56 -4.14,-11.93 1.76,-1.08 1.63,-0.59 3.73,-0.58l0.3 -0.62 0.11 -0.1c-1.62,-0.13 -3.86,-0.57 -4.77,1.11 -1.45,2.74 1.84,9.46 3.12,11.19 0.92,1.26 2.38,3.42 3.41,4.02 2.22,1.28 3.59,-0.76 4.07,-2.34z"/>
     <path class="fil6" d="M-234.46 52.23c0,0.46 -0.1,0.3 0.45,0.29 3.61,0.77 6.23,1.51 7.96,3.92 1.22,1.71 -1.64,6.91 -2.66,8.44l-0.07 0.39c0.82,-0.44 0.31,-0.31 0.56,0.22 0.06,-0.05 0.15,-0.22 0.17,-0.16 0.02,0.05 0.12,-0.11 0.14,-0.14 0.03,-0.03 0.12,-0.12 0.17,-0.2 0.85,-2.69 4.09,-6.32 2.18,-9.02 -1.84,-2.6 -4.25,-3.53 -8.6,-4.36l-0.3 0.62 0 0z"/>
    </g>
    <path class="fil5" d="M-231.36 41.81c1,0.02 5.65,0.18 6.47,-0.33l-0.05 -1.52 -6.41 0.07 -0.01 1.78z"/>
    <path class="fil6" d="M-217.13 43.71c0.43,1.95 1.17,2.08 2.91,2.67 1.45,0.25 1.88,0.54 3.39,0.2 1.29,-0.23 2.76,-0.73 3.98,-1.15 0.61,-0.21 1.23,-0.44 1.87,-0.69 0.94,-0.38 1.07,-0.38 1.68,-0.95 -1.58,0.03 -0.6,0.05 -0.96,-0.37 -4.34,2.05 -6.71,3.33 -11.8,1.61 -0.09,-0.32 -0.11,-0.54 -0.26,-0.94 -0.24,-0.62 -0.04,-0.18 -0.31,-0.54l-0.5 0.16z"/>
    <path class="fil6" d="M-208.84 60.48l0.08 0.46 0.28 0.22c1.41,1.39 2.35,3.59 4.88,4.03l0.59 -0.91c-1.68,0.06 -1.92,-0.49 -2.77,-1.3 -0.61,-0.58 -1.46,-1.62 -1.89,-2.35l-0.71 -0.52 0.27 0.57 -0.73 -0.2z"/>
    <path class="fil6" d="M-218.46 60.57c-2.32,1.64 -1.08,-0.27 -4.01,3.18l-1.03 1.3c1.06,-0.08 0.47,-0.19 0.69,0.42 2.08,-1.61 -0.25,-1.61 4.56,-4.05l0.91 -0.64 -0.26 -0.49 -0.86 0.28 0 0z"/>
    <g>
     <path class="fil4" d="M-233.44 48.55c0.45,-0.38 0.71,0.09 0.07,-0.6l-2.52 -0.92 -0.4 -1.4 2.08 -2.91c2.47,-3.14 6.08,-6.58 10.48,-7.06 1.49,1.43 0.98,1.43 1.51,3.46l0.67 0.14 0.13 0.08c-0.29,-1.6 -0.44,-3.88 -2.29,-4.33 -3.02,-0.7 -8.67,4.2 -10.02,5.88 -0.98,1.21 -2.7,3.18 -3.01,4.32 -0.67,2.48 1.65,3.28 3.3,3.34l0 0z"/>
     <path class="fil6" d="M-222.22 39.12c-0.45,0.12 -0.31,-0.01 -0.16,0.51 0.18,3.69 0.13,6.41 -1.76,8.7 -1.33,1.61 -7.09,0.18 -8.84,-0.41l-0.39 0.03c0.64,0.69 0.38,0.22 -0.07,0.6 0.06,0.04 0.25,0.09 0.2,0.13 -0.05,0.03 0.14,0.08 0.17,0.1 0.04,0.02 0.14,0.08 0.23,0.1 2.82,0.14 7.16,2.34 9.28,-0.2 2.05,-2.44 2.33,-5 2.01,-9.42l-0.67 -0.14 0 0z"/>
    </g>
   </g>
  </g>
  <g id="_1475819328800">
   <g id="_2408587593808">
    <path class="fil7" d="M3.71 56.05c3.72,0.96 4.25,1.29 8.45,0.68 2.34,-3.61 3.17,-21.2 3.74,-26.44l-0.22 27.31c1.6,4.69 24.92,3.35 29.32,2.22 7.12,-1.81 3.14,-7.21 4.12,-12.16 0.77,-3.83 6.36,-2.12 10.28,-9.94 2.7,-5.39 2.18,-11.79 -0.4,-17.03 -7.13,-14.49 -25.68,-20.73 -41.68,-13.44 -6.41,2.91 -7.15,4.5 -9.32,11.41 -3.4,10.81 -4.21,25.44 -4.29,37.39l0 0z"/>
    <path class="fil0" d="M5.47 54.99l6.1 0.6c0.81,-7.98 1.08,-30.46 5.68,-34.13l0.03 36.1c8.82,1.79 21.37,3.12 30.18,-0.24l0.14 -10.35 -8.2 1.12c-1.08,-1.88 -2.17,-2.97 -2.92,-5.36 2.25,-2.13 7.19,-4.5 10.61,-5.73l-1.2 -16.1c5.31,2.66 13.31,11.28 -0.5,18.56 -8.67,4.57 -5.91,1.58 -6.88,5.28 9.7,5.17 22.83,-5.91 20.95,-17.74 -1.63,-10.26 -11.11,-18.02 -21.09,-20.44 -8.94,-2.17 -24.16,-0.8 -28.23,10.9 -3.4,9.78 -5.5,26.58 -4.67,37.53l0 0z"/>
    <path class="fil7" d="M22.63 8.72c0.48,4.92 5.18,10.77 9.24,10.39 3.78,-0.36 7.54,-6.62 8.15,-10.9 -3.25,-0.87 -5.33,-1.21 -8.82,-1.2 -1.3,0.01 -3.4,0.09 -4.63,0.28 -2.63,0.4 -2.28,0.42 -3.94,1.43l0 0z"/>
    <path class="fil7" d="M24.71 30.26c2.08,6.18 14.79,7.15 14.5,-1.42 -3.32,-3 -12.03,-4.96 -14.5,1.42z"/>
    <path class="fil0" d="M24.58 9.55c0.26,4.58 3.6,7.14 7.67,8.11 2.62,-2.02 5.67,-4.22 5.37,-8.52 -4.31,-0.64 -8.93,-1.05 -13.04,0.41l0 0z"/>
    <path class="fil0" d="M26.32 30.26c0.95,2.21 2.34,2.89 5.8,2.99 3.8,0.11 4.99,-0.76 5.69,-4.01 -3.31,-1.5 -10.11,-3.01 -11.49,1.02z"/>
    <path class="fil0" d="M48.77 35.2c4.93,-3.38 2.56,-7.58 -0.85,-10.69l0.85 10.69z"/>
   </g>
  </g>
 </g>
</svg>
